<svg xmlns="http://www.w3.org/2000/svg" viewBox="0 0 450 450"><defs><style>.cls-1{fill:#ffe164;}.cls-2{fill:gold;}.cls-3{fill:#f0c300;}.cls-4,.cls-5{fill:none;stroke-miterlimit:10;}.cls-4{stroke:#000;stroke-width:4px;}.cls-5{stroke:#f0be00;stroke-width:10px;}</style></defs><g id="Layer_1" data-name="Layer 1"><path class="cls-1" d="M475,250c0,124.26-100.74,225-225,225A224.51,224.51,0,0,1,77.36,394.29q-6.75-8-12.72-16.71-3.82-5.54-7.32-11.33A224.06,224.06,0,0,1,25,250C25,133,114.28,36.89,228.41,26c7.1-.68,14.31-1,21.59-1a225.1,225.1,0,0,1,43.35,4.18q6.66,1.29,13.17,3,10.23,2.64,20.06,6.21C413.14,69.7,475,152.63,475,250Z" transform="translate(-25 -25)"/><path class="cls-2" d="M293.35,29.18l-236,337.07a223.24,223.24,0,0,1-25.2-59.89L228.41,26c7.1-.68,14.31-1,21.59-1A225.1,225.1,0,0,1,293.35,29.18Z" transform="translate(-25 -25)"/><path class="cls-2" d="M77.36,394.29,326.58,38.37q-9.82-3.55-20.06-6.21L64.64,377.58Z" transform="translate(-25 -25)"/><path class="cls-3" d="M250,75a175,175,0,1,1-123.74,51.26A173.82,173.82,0,0,1,250,75m0-10C147.83,65,65,147.83,65,250s82.83,185,185,185,185-82.83,185-185S352.17,65,250,65Z" transform="translate(-25 -25)"/></g><g id="Clover"><path class="cls-4" d="M241.27,174.67" transform="translate(-25 -25)"/><path class="cls-5" d="M159.73,166.31c0-.1,0-.2,0-.3a36,36,0,0,1,71.61-7.55L240.11,242l-83.54,8.81A36,36,0,1,1,149,179.2L161,177.94,159.69,166" transform="translate(-25 -25)"/><path class="cls-5" d="M333.69,159.73l.3,0a36,36,0,0,1,7.55,71.61L258,240.11l-8.81-83.54A36,36,0,1,1,320.8,149L322.06,161,334,159.69" transform="translate(-25 -25)"/><path class="cls-5" d="M166.31,340.27l-.3,0a36,36,0,1,1-7.55-71.61L242,259.89l8.81,83.54A36,36,0,1,1,179.2,351l-1.26-11.93L166,340.31" transform="translate(-25 -25)"/><path class="cls-5" d="M340.27,333.69c0,.1,0,.2,0,.3a36,36,0,0,1-71.61,7.55L259.89,258l83.54-8.81A36,36,0,1,1,351,320.8l-11.93,1.26L340.31,334" transform="translate(-25 -25)"/></g></svg>
